<svg xmlns="http://www.w3.org/2000/svg" width="324.1265" height="120.7631" viewBox="0 0 324.1265 120.7631"><defs><style>.cls-1{fill:#999;}.cls-2{fill:#fff;}.cls-3{fill:#eedb00;}</style></defs><g id="Layer_2" data-name="Layer 2"><g id="Layer_1-2" data-name="Layer 1"><path class="cls-1" d="M265.9555,120.7631H66.4385c-32.1269,0-65.9-26.0441-65.9-58.171l7.7289,0A58.171,58.171,0,0,1,66.4385,4.421h199.517a58.171,58.171,0,0,1,58.171,58.171v0A58.171,58.171,0,0,1,265.9555,120.7631Z"/><rect class="cls-2" x="0.3729" width="315.8589" height="116.342" rx="58.1709"/><circle class="cls-3" cx="56.8891" cy="58.171" r="56.8891"/><path d="M79.292,69.351a29.4206,29.4206,0,0,1-17.69,7.94c-3.06.32-6.18.04-9.27.09a3.3257,3.3257,0,0,0-1.69.49c-3.32,2.19-6.59,4.46-9.91,6.66a5.3274,5.3274,0,0,1-1.54.47,5.649,5.649,0,0,1-.17-1.71c.74-3,1.56-5.99,2.31-8.82-2.28-1.66-4.55-3.05-6.5-4.79-4.61-4.1-7.32-9.2-7.2-15.52.12-6.13,2.9-11.01,7.36-15.01a30.5987,30.5987,0,0,1,16.19-7.34,34.4693,34.4693,0,0,1,22.75,3.92c5.42,3.06,9.6,7.3,11.37,13.41C87.602,57.101,85.092,63.801,79.292,69.351Z"/><path d="M51.2019,51.1863,53.0882,56.57H49.02l1.85-5.372Z"/><path d="M140.71,46.6168c0,.9507.4385,1.4629,1.39,1.4629h24.353v6.436H153.4347v5.3389h23.0371v6.582H123.0841v-6.582h23.0376V54.5157h-4.9c-5.2656,0-7.8251-1.8286-7.8251-7.6064V27.8209h32.3979v6.436H140.71V38.06h24.3531v6.143H140.71Zm18.5025,46.6607V78.1383H133.03v-6.582h33.4951V93.2775Z"/><path d="M193.5158,49.8351c-2.9258,6.29-9.2881,10.1655-13.9688,11.5551L176.11,55.32c10.8975-3.8759,13.8223-10.8969,13.8223-22.5254V30.7467h7.3135v2.0478c0,12.14,2.9258,18.1372,13.53,22.4522l-3.8027,5.8511C202.8039,59.4889,196.66,56.0514,193.5158,49.8351Zm-.585,29.4731c0-7.0937,5.7774-14.5537,15.4317-14.5537s15.4316,7.46,15.4316,14.5537-5.7783,14.5542-15.4316,14.5542S192.9308,86.4025,192.9308,79.3082Zm23.5488,0a8.119,8.119,0,1,0-8.1171,7.9722A7.7934,7.7934,0,0,0,216.48,79.3082Zm8.2647-15.7241h-7.3135V32.7213a4.0088,4.0088,0,0,0-3.0713-4.0957l3.51-6.07c4.6084,1.8286,6.875,4.3149,6.875,9.8V41.79h10.0195v6.5821H224.7443Z"/><path d="M268.4084,59.5616H246.8341c-6.07,0-8.9961-1.9013-8.9961-8.3374V31.4776h26.9141V38.06H245.1515v13.164a1.53,1.53,0,0,0,1.6826,1.7554h21.5743Zm-10.0928,33.13c-6.0694,0-8.9951-1.9014-8.9951-8.3374V66.8024h31.8867v25.89Zm15.5781-6.582V73.3844h-17.26v10.97a1.53,1.53,0,0,0,1.6817,1.7554Zm8.0449-22.8911h-7.3134V32.7213a4.0089,4.0089,0,0,0-3.0713-4.0957l3.51-6.07c4.6075,1.8286,6.875,4.3149,6.875,9.8V41.79h10.02v6.5821h-10.02Z"/></g></g></svg>