<svg id="_icon" data-name=" icon" xmlns="http://www.w3.org/2000/svg" viewBox="0 0 1000 1000"><defs><style>.cls-1{fill:#ffc550;}.cls-2{fill:#3867bc;}.cls-3{fill:#ff5d63;}</style></defs><path class="cls-1" d="M145.09,659.82a45,45,0,0,1-45-45A238.26,238.26,0,0,1,506.82,446.34,45,45,0,0,1,443.18,510a147.28,147.28,0,0,0-104.83-43.42c-81.75,0-148.26,66.51-148.26,148.26A45,45,0,0,1,145.09,659.82Z"/><path class="cls-1" d="M145.09,659.82a45,45,0,0,1-45-45A238.26,238.26,0,0,1,506.82,446.34,45,45,0,0,1,443.18,510a147.28,147.28,0,0,0-104.83-43.42c-81.75,0-148.26,66.51-148.26,148.26A45,45,0,0,1,145.09,659.82Z"/><path class="cls-2" d="M855,660a44.83,44.83,0,0,1-28.85-10.48L580.87,444.39l-76,67.43a45,45,0,0,1-59.73-67.32l105-93.16a45,45,0,0,1,58.74-.86l275,230A45,45,0,0,1,855,660Z"/><rect class="cls-3" x="100" y="570" width="800" height="90" rx="45"/></svg>