<svg xmlns="http://www.w3.org/2000/svg" viewBox="0 0 1000 1000"><defs><style>.cls-1{fill:#ffc550;}.cls-2{fill:#3867bc;}.cls-3{fill:#ff5d63;}</style></defs><g id="logo"><path class="cls-1" d="M145.09,499.81a45,45,0,0,1-45-45A238.26,238.26,0,0,1,506.82,286.34,45,45,0,0,1,443.18,350a147.28,147.28,0,0,0-104.83-43.42c-81.75,0-148.26,66.5-148.26,148.25A45,45,0,0,1,145.09,499.81Z"/><path class="cls-1" d="M145.09,499.81a45,45,0,0,1-45-45A238.26,238.26,0,0,1,506.82,286.34,45,45,0,0,1,443.18,350a147.28,147.28,0,0,0-104.83-43.42c-81.75,0-148.26,66.5-148.26,148.25A45,45,0,0,1,145.09,499.81Z"/><path class="cls-2" d="M855,500a44.83,44.83,0,0,1-28.85-10.48L580.87,284.39l-76,67.43a45,45,0,1,1-59.74-67.32l105-93.16a45,45,0,0,1,58.74-.86l275,230A45,45,0,0,1,855,500Z"/><rect class="cls-3" x="100" y="410" width="800" height="90" rx="45"/><path class="cls-3" d="M289.8,455.19V585a45,45,0,0,1-45,45h0a45,45,0,0,1-45-45V455.19Z"/><path class="cls-2" d="M750.2,724.19a163.24,163.24,0,0,1-23.38-1.69c-45.19-6.52-83-31.1-116.32-52.78-28-18.23-54.52-35.46-80.1-39.15-16.6-2.39-43.58-1.32-86.19,35.48h0a45,45,0,0,1-63.47-4.63h0A45,45,0,0,1,385.38,598h0c52.88-45.69,104.52-64.15,157.87-56.45,45.19,6.52,83,31.09,116.32,52.77,28,18.24,54.52,35.46,80.1,39.15,16.6,2.4,43.59,1.32,86.19-35.48h0a45,45,0,0,1,63.47,4.64h0a45,45,0,0,1-4.63,63.47h0C839.57,705,795.35,724.19,750.2,724.19Z"/><path class="cls-2" d="M345.25,820.06a277.3,277.3,0,0,1-71.84-9.52A274,274,0,0,1,105.93,682a45,45,0,0,1,77.94-45C235.1,725.76,349,756.27,437.72,705a45,45,0,0,1,45,77.94A274.2,274.2,0,0,1,345.25,820.06Z"/><path class="cls-3" d="M459.67,455.19V632.06a45,45,0,0,1-45,45h0a45,45,0,0,1-45-45V455.19Z"/></g></svg>