<svg xmlns="http://www.w3.org/2000/svg" width="22" height="22.5" viewBox="0 0 22 22.5"><defs><style>.cls-1{fill:#fff;}</style></defs><g id="Layer_2" data-name="Layer 2"><g id="Layer_1-2" data-name="Layer 1"><g id="kakaotalk"><path d="M22,11A11.0115,11.0115,0,0,1,6.15,20.88C5.04,21.66.5,22.5.5,22.5l2.29-4.18A11,11,0,1,1,22,11Z"/><path class="cls-1" d="M11.1718,14.0214c-.0948.11-.238.4089-.3751.4061a1.0848,1.0848,0,0,1-.7147-.3165c-.2319-.2559-.327-.8463-.5366-.8743a11.2624,11.2624,0,0,0-2.3878-.0074c-.1426.0116-.2911.4018-.3709.6394-.1467.4373-.4091.7831-.8543.5434a.9749.9749,0,0,1-.2543-.8947c.5553-1.6084,1.15-3.2055,1.8115-4.7727a1.3121,1.3121,0,0,1,.93-.6873,1.1887,1.1887,0,0,1,.856.6705c.64,1.5766,1.2005,3.1857,1.7845,4.7849A4.6807,4.6807,0,0,1,11.1718,14.0214Zm-1.77-1.933-.94-2.8359-.183.03-.91,2.8058Z"/><path class="cls-1" d="M18.6253,10.7165c.7689,1.0194,1.3944,1.7786,1.9292,2.5971.1776.2716.29.8818.1418,1.0145-.43.3865-.805.0563-1.0965-.3522-.5241-.7344-1.067-1.4553-1.7328-2.3594a6.6729,6.6729,0,0,0-.4737.9954,4.068,4.068,0,0,0-.02.7942c-.03.4469.1581,1.0755-.6,1.0545-.75-.0207-.5493-.6557-.5608-1.0938-.0252-.9573-.008-1.9157-.0079-2.8737,0-.5056.0013-1.0111.0006-1.5167-.0006-.44-.0027-.9391.5793-.9543.5963-.0156.5971.4791.5928.9231-.0051.5184-.0012,1.0368-.0012,1.668.7646-.7292,1.4091-1.3445,2.0544-1.959.1537-.1464.2888-.3655.47-.4162.22-.0615.6192-.0621.6908.0589a.7783.7783,0,0,1-.0257.7368C19.96,9.6264,19.2889,10.1527,18.6253,10.7165Z"/><path class="cls-1" d="M3.1517,9.1528a6.9858,6.9858,0,0,1-1.3333-.0236c-.22-.0455-.39-.331-.5832-.5084.1873-.1778.3695-.5029.5627-.51q1.9571-.068,3.9171.0011c.1934.0069.3753.3374.5625.5182-.1967.1744-.3709.4513-.5952.5005a6.6942,6.6942,0,0,1-1.3164.0229c0,1.2379,0,2.4266,0,3.6153a3.4,3.4,0,0,1-.0266,1.0316c-.0876.2625-.3875.454-.5935.677-.1974-.23-.554-.4516-.5654-.69-.0584-1.2236-.028-2.4515-.0286-3.6779C3.1516,9.8234,3.1517,9.537,3.1517,9.1528Z"/><path class="cls-1" d="M13.1618,13.3676a12.3777,12.3777,0,0,1,1.6951.0228c.2489.0365.4625.3144.692.483-.24.19-.4648.517-.7217.5442a20.163,20.163,0,0,1-2.1571.0252.65.65,0,0,1-.7246-.7478c.0023-1.6532-.023-3.3072.026-4.9589.0074-.2505.3536-.491.5431-.7361.2157.2491.6078.4911.6181.7484C13.1923,10.2371,13.1618,11.73,13.1618,13.3676Z"/></g></g></g></svg>