<svg xmlns="http://www.w3.org/2000/svg" width="24.2647" height="24.0183" viewBox="0 0 24.2647 24.0183"><defs><style>.cls-1,.cls-3{fill:#fff;}.cls-2{fill:#4d4d4d;}.cls-3{stroke:#4d4d4d;stroke-miterlimit:10;}</style></defs><g id="Layer_2" data-name="Layer 2"><g id="Layer_1-2" data-name="Layer 1"><circle class="cls-1" cx="9.5" cy="9.5" r="8.55"/><path class="cls-2" d="M9.5,19A9.5,9.5,0,1,1,19,9.5,9.5105,9.5105,0,0,1,9.5,19Zm0-17.1a7.6,7.6,0,1,0,7.6,7.6A7.6087,7.6087,0,0,0,9.5,1.9Z"/><path class="cls-3" d="M15.8682,17.1542,19.96,23.01a1.1894,1.1894,0,0,0,1.76.2121l1.64-1.4417a1.1894,1.1894,0,0,0-.0595-1.8358l-5.732-4.4142a1.19,1.19,0,0,0-1.5939.1293h0A1.19,1.19,0,0,0,15.8682,17.1542Z"/></g></g></svg>